<svg width="14" height="14" viewBox="0 0 14 14" fill="none" xmlns="http://www.w3.org/2000/svg" id="smile">
<path d="M9.0625 10.0312C8.45833 10.4479 7.77083 10.6562 7 10.6562C6.22917 10.6562 5.53125 10.4479 4.90625 10.0312C4.30208 9.59375 3.86458 9.03125 3.59375 8.34375H4.6875C5.20833 9.21875 5.97917 9.65625 7 9.65625C8.02083 9.65625 8.79167 9.21875 9.3125 8.34375H10.4062C10.1354 9.03125 9.6875 9.59375 9.0625 10.0312ZM3.21875 10.7812C4.28125 11.8229 5.54167 12.3438 7 12.3438C8.45833 12.3438 9.70833 11.8229 10.75 10.7812C11.8125 9.71875 12.3438 8.45833 12.3438 7C12.3438 5.54167 11.8125 4.29167 10.75 3.25C9.70833 2.1875 8.45833 1.65625 7 1.65625C5.54167 1.65625 4.28125 2.1875 3.21875 3.25C2.17708 4.29167 1.65625 5.54167 1.65625 7C1.65625 8.45833 2.17708 9.71875 3.21875 10.7812ZM2.28125 2.3125C3.59375 1 5.16667 0.34375 7 0.34375C8.83333 0.34375 10.3958 1 11.6875 2.3125C13 3.60417 13.6562 5.16667 13.6562 7C13.6562 8.83333 13 10.4062 11.6875 11.7188C10.3958 13.0104 8.83333 13.6562 7 13.6562C5.16667 13.6562 3.59375 13.0104 2.28125 11.7188C0.989583 10.4062 0.34375 8.83333 0.34375 7C0.34375 5.16667 0.989583 3.60417 2.28125 2.3125ZM5.34375 6.0625C5.15625 6.25 4.92708 6.34375 4.65625 6.34375C4.38542 6.34375 4.14583 6.25 3.9375 6.0625C3.75 5.85417 3.65625 5.61458 3.65625 5.34375C3.65625 5.07292 3.75 4.84375 3.9375 4.65625C4.14583 4.44792 4.38542 4.34375 4.65625 4.34375C4.92708 4.34375 5.15625 4.44792 5.34375 4.65625C5.55208 4.84375 5.65625 5.07292 5.65625 5.34375C5.65625 5.61458 5.55208 5.85417 5.34375 6.0625ZM10.0312 6.0625C9.84375 6.25 9.61458 6.34375 9.34375 6.34375C9.07292 6.34375 8.83333 6.25 8.625 6.0625C8.4375 5.85417 8.34375 5.61458 8.34375 5.34375C8.34375 5.07292 8.4375 4.84375 8.625 4.65625C8.83333 4.44792 9.07292 4.34375 9.34375 4.34375C9.61458 4.34375 9.84375 4.44792 10.0312 4.65625C10.2396 4.84375 10.3438 5.07292 10.3438 5.34375C10.3438 5.61458 10.2396 5.85417 10.0312 6.0625Z" fill="white"/>
</svg>
